<svg xmlns="http://www.w3.org/2000/svg" viewBox="0 0 800 500" role="img" aria-label="Automation screenshot placeholder">
<rect width="800" height="500" rx="0" fill="#ffffff"/>
<rect x="0" y="0" width="800" height="46" fill="#f4f5f8"/>
<circle cx="26" cy="23" r="5" fill="#e0574f"/><circle cx="46" cy="23" r="5" fill="#e8b13c"/><circle cx="66" cy="23" r="5" fill="#5ab55e"/>
<rect x="150" y="13" width="500" height="20" rx="10" fill="#e9ebf0"/>
<rect x="0" y="46" width="180" height="454" fill="#fafbfc"/>
<rect x="24" y="78" width="120" height="12" rx="6" fill="#fdd700"/>
<rect x="24" y="112" width="132" height="9" rx="4.5" fill="#c7cbd4"/>
<rect x="24" y="134" width="108" height="9" rx="4.5" fill="#c7cbd4"/>
<rect x="24" y="156" width="124" height="9" rx="4.5" fill="#c7cbd4"/>
<rect x="24" y="178" width="96" height="9" rx="4.5" fill="#c7cbd4"/>
<rect x="212" y="78" width="180" height="16" rx="8" fill="#1a1a23"/><path d="M320 186 C 380 210, 380 236, 430 262" fill="none" stroke="#c7cbd4" stroke-width="3"/><path d="M510 262 C 560 236, 560 210, 620 186" fill="none" stroke="#c7cbd4" stroke-width="3"/><path d="M470 300 C 470 330, 460 350, 450 372" fill="none" stroke="#c7cbd4" stroke-width="3"/><rect x="240" y="150" width="150" height="72" rx="12" fill="#ffffff" stroke="#e2e4ea"/><rect x="258" y="170" width="80" height="9" rx="4.5" fill="#c7cbd4"/><rect x="258" y="190" width="110" height="9" rx="4.5" fill="#c7cbd4"/><rect x="430" y="260" width="150" height="72" rx="12" fill="#fdd700" stroke="#e2e4ea"/><rect x="448" y="280" width="80" height="9" rx="4.5" fill="#1a1a23"/><rect x="448" y="300" width="110" height="9" rx="4.5" fill="#c7cbd4"/><rect x="620" y="150" width="150" height="72" rx="12" fill="#ffffff" stroke="#e2e4ea"/><rect x="638" y="170" width="80" height="9" rx="4.5" fill="#c7cbd4"/><rect x="638" y="190" width="110" height="9" rx="4.5" fill="#c7cbd4"/><rect x="430" y="380" width="150" height="72" rx="12" fill="#ffffff" stroke="#e2e4ea"/><rect x="448" y="400" width="80" height="9" rx="4.5" fill="#c7cbd4"/><rect x="448" y="420" width="110" height="9" rx="4.5" fill="#c7cbd4"/>
<rect x="0.5" y="0.5" width="799" height="499" rx="0" fill="none" stroke="#e2e4ea"/>
</svg>