<svg xmlns="http://www.w3.org/2000/svg" viewBox="0 0 800 500" role="img" aria-label="Internal tool screenshot placeholder">
<rect width="800" height="500" rx="0" fill="#ffffff"/>
<rect x="0" y="0" width="800" height="46" fill="#f4f5f8"/>
<circle cx="26" cy="23" r="5" fill="#e0574f"/><circle cx="46" cy="23" r="5" fill="#e8b13c"/><circle cx="66" cy="23" r="5" fill="#5ab55e"/>
<rect x="150" y="13" width="500" height="20" rx="10" fill="#e9ebf0"/>
<rect x="0" y="46" width="180" height="454" fill="#fafbfc"/>
<rect x="24" y="78" width="120" height="12" rx="6" fill="#fdd700"/>
<rect x="24" y="112" width="132" height="9" rx="4.5" fill="#c7cbd4"/>
<rect x="24" y="134" width="108" height="9" rx="4.5" fill="#c7cbd4"/>
<rect x="24" y="156" width="124" height="9" rx="4.5" fill="#c7cbd4"/>
<rect x="24" y="178" width="96" height="9" rx="4.5" fill="#c7cbd4"/>
<rect x="212" y="78" width="200" height="16" rx="8" fill="#1a1a23"/><rect x="212" y="118" width="564" height="34" rx="8" fill="#f1f3f7"/><rect x="212" y="162" width="564" height="34" rx="8" fill="#ffffff" stroke="#e2e4ea"/><circle cx="234" cy="179" r="9" fill="#fdd700"/><rect x="256" y="174" width="150" height="9" rx="4.5" fill="#c7cbd4"/><rect x="470" y="174" width="90" height="9" rx="4.5" fill="#c7cbd4"/><rect x="640" y="174" width="60" height="9" rx="4.5" fill="#c7cbd4"/><rect x="212" y="208" width="564" height="34" rx="8" fill="#ffffff" stroke="#e2e4ea"/><circle cx="234" cy="225" r="9" fill="#e9ebf0"/><rect x="256" y="220" width="150" height="9" rx="4.5" fill="#c7cbd4"/><rect x="470" y="220" width="90" height="9" rx="4.5" fill="#c7cbd4"/><rect x="640" y="220" width="60" height="9" rx="4.5" fill="#c7cbd4"/><rect x="212" y="254" width="564" height="34" rx="8" fill="#ffffff" stroke="#e2e4ea"/><circle cx="234" cy="271" r="9" fill="#e9ebf0"/><rect x="256" y="266" width="150" height="9" rx="4.5" fill="#c7cbd4"/><rect x="470" y="266" width="90" height="9" rx="4.5" fill="#c7cbd4"/><rect x="640" y="266" width="60" height="9" rx="4.5" fill="#c7cbd4"/><rect x="212" y="300" width="564" height="34" rx="8" fill="#ffffff" stroke="#e2e4ea"/><circle cx="234" cy="317" r="9" fill="#fdd700"/><rect x="256" y="312" width="150" height="9" rx="4.5" fill="#c7cbd4"/><rect x="470" y="312" width="90" height="9" rx="4.5" fill="#c7cbd4"/><rect x="640" y="312" width="60" height="9" rx="4.5" fill="#c7cbd4"/><rect x="212" y="346" width="564" height="34" rx="8" fill="#ffffff" stroke="#e2e4ea"/><circle cx="234" cy="363" r="9" fill="#e9ebf0"/><rect x="256" y="358" width="150" height="9" rx="4.5" fill="#c7cbd4"/><rect x="470" y="358" width="90" height="9" rx="4.5" fill="#c7cbd4"/><rect x="640" y="358" width="60" height="9" rx="4.5" fill="#c7cbd4"/><rect x="212" y="392" width="564" height="34" rx="8" fill="#ffffff" stroke="#e2e4ea"/><circle cx="234" cy="409" r="9" fill="#e9ebf0"/><rect x="256" y="404" width="150" height="9" rx="4.5" fill="#c7cbd4"/><rect x="470" y="404" width="90" height="9" rx="4.5" fill="#c7cbd4"/><rect x="640" y="404" width="60" height="9" rx="4.5" fill="#c7cbd4"/>
<rect x="0.5" y="0.5" width="799" height="499" rx="0" fill="none" stroke="#e2e4ea"/>
</svg>