<svg xmlns="http://www.w3.org/2000/svg" viewBox="0 0 800 500" role="img" aria-label="Client portal screenshot placeholder">
<rect width="800" height="500" rx="0" fill="#ffffff"/>
<rect x="0" y="0" width="800" height="46" fill="#f4f5f8"/>
<circle cx="26" cy="23" r="5" fill="#e0574f"/><circle cx="46" cy="23" r="5" fill="#e8b13c"/><circle cx="66" cy="23" r="5" fill="#5ab55e"/>
<rect x="150" y="13" width="500" height="20" rx="10" fill="#e9ebf0"/>
<rect x="0" y="46" width="180" height="454" fill="#fafbfc"/>
<rect x="24" y="78" width="120" height="12" rx="6" fill="#fdd700"/>
<rect x="24" y="112" width="132" height="9" rx="4.5" fill="#c7cbd4"/>
<rect x="24" y="134" width="108" height="9" rx="4.5" fill="#c7cbd4"/>
<rect x="24" y="156" width="124" height="9" rx="4.5" fill="#c7cbd4"/>
<rect x="24" y="178" width="96" height="9" rx="4.5" fill="#c7cbd4"/>
<rect x="212" y="78" width="180" height="16" rx="8" fill="#1a1a23"/><rect x="212" y="120" width="176" height="130" rx="10" fill="#ffffff" stroke="#e2e4ea"/><rect x="228" y="136" width="70" height="46" rx="8" fill="#fdd700"/><rect x="228" y="200" width="120" height="9" rx="4.5" fill="#c7cbd4"/><rect x="228" y="218" width="90" height="9" rx="4.5" fill="#c7cbd4"/><rect x="408" y="120" width="176" height="130" rx="10" fill="#ffffff" stroke="#e2e4ea"/><rect x="424" y="136" width="70" height="46" rx="8" fill="#eef0f4"/><rect x="424" y="200" width="120" height="9" rx="4.5" fill="#c7cbd4"/><rect x="424" y="218" width="90" height="9" rx="4.5" fill="#c7cbd4"/><rect x="604" y="120" width="176" height="130" rx="10" fill="#ffffff" stroke="#e2e4ea"/><rect x="620" y="136" width="70" height="46" rx="8" fill="#eef0f4"/><rect x="620" y="200" width="120" height="9" rx="4.5" fill="#c7cbd4"/><rect x="620" y="218" width="90" height="9" rx="4.5" fill="#c7cbd4"/><rect x="212" y="270" width="176" height="130" rx="10" fill="#ffffff" stroke="#e2e4ea"/><rect x="228" y="286" width="70" height="46" rx="8" fill="#eef0f4"/><rect x="228" y="350" width="120" height="9" rx="4.5" fill="#c7cbd4"/><rect x="228" y="368" width="90" height="9" rx="4.5" fill="#c7cbd4"/><rect x="408" y="270" width="176" height="130" rx="10" fill="#ffffff" stroke="#e2e4ea"/><rect x="424" y="286" width="70" height="46" rx="8" fill="#eef0f4"/><rect x="424" y="350" width="120" height="9" rx="4.5" fill="#c7cbd4"/><rect x="424" y="368" width="90" height="9" rx="4.5" fill="#c7cbd4"/><rect x="604" y="270" width="176" height="130" rx="10" fill="#ffffff" stroke="#e2e4ea"/><rect x="620" y="286" width="70" height="46" rx="8" fill="#fdd700"/><rect x="620" y="350" width="120" height="9" rx="4.5" fill="#c7cbd4"/><rect x="620" y="368" width="90" height="9" rx="4.5" fill="#c7cbd4"/>
<rect x="0.5" y="0.5" width="799" height="499" rx="0" fill="none" stroke="#e2e4ea"/>
</svg>