<svg viewBox="0 0 176 176" xmlns="http://www.w3.org/2000/svg" role="img" aria-label="Palma Design">
<rect width="176" height="176" rx="36" fill="#141419"/>
<g transform="translate(19.5,37) scale(1.4)">
<path fill="#fdd700" d="M10.3864 63C7.41145 63 5 60.6107 5 57.663V22.3201C5 15.5258 10.577 10 17.4343 10H32.0438C40.8444 10 48 17.094 48 25.8097V31.9677C48 40.6874 40.8402 47.7774 32.0438 47.7774H26.5829C23.6079 47.7774 21.1965 45.3881 21.1965 42.4404C21.1965 39.4928 23.6079 37.1035 26.5829 37.1035H32.0438C34.9028 37.1035 37.2272 34.8004 37.2272 31.9677V25.8097C37.2272 22.977 34.9028 20.6739 32.0438 20.6739H17.4343C16.5186 20.6739 15.7728 21.4129 15.7728 22.3201V57.663C15.7728 60.6107 13.3613 63 10.3864 63Z"/>
<path fill="#fdd700" d="M80.5657 63H65.9562C57.1556 63 50 55.906 50 47.1903V41.0323C50 32.3125 57.1598 25.2226 65.9562 25.2226H71.4171C74.3921 25.2226 76.8035 27.6119 76.8035 30.5596C76.8035 33.5072 74.3921 35.8965 71.4171 35.8965H65.9562C63.0972 35.8965 60.7728 38.1996 60.7728 41.0323V47.1903C60.7728 50.023 63.0972 52.3261 65.9562 52.3261H80.5657C81.4814 52.3261 82.2272 51.5871 82.2272 50.6799V15.3369C82.2272 12.3893 84.6387 10 87.6136 10C90.5886 10 93 12.3893 93 15.3369V50.6799C93 57.4742 87.423 63 80.5657 63Z"/>
</g>
</svg>
