<svg viewBox="5 10 422 53" xmlns="http://www.w3.org/2000/svg">
<path fill="currentColor" d="M10.3864 63C7.41145 63 5 60.6107 5 57.663V22.3201C5 15.5258 10.577 10 17.4343 10H32.0438C40.8444 10 48 17.094 48 25.8097V31.9677C48 40.6874 40.8402 47.7774 32.0438 47.7774H26.5829C23.6079 47.7774 21.1965 45.3881 21.1965 42.4404C21.1965 39.4928 23.6079 37.1035 26.5829 37.1035H32.0438C34.9028 37.1035 37.2272 34.8004 37.2272 31.9677V25.8097C37.2272 22.977 34.9028 20.6739 32.0438 20.6739H17.4343C16.5186 20.6739 15.7728 21.4129 15.7728 22.3201V57.663C15.7728 60.6107 13.3613 63 10.3864 63Z"/>
<path fill="currentColor" d="M80.5657 63H65.9562C57.1556 63 50 55.906 50 47.1903V41.0323C50 32.3125 57.1598 25.2226 65.9562 25.2226H71.4171C74.3921 25.2226 76.8035 27.6119 76.8035 30.5596C76.8035 33.5072 74.3921 35.8965 71.4171 35.8965H65.9562C63.0972 35.8965 60.7728 38.1996 60.7728 41.0323V47.1903C60.7728 50.023 63.0972 52.3261 65.9562 52.3261H80.5657C81.4814 52.3261 82.2272 51.5871 82.2272 50.6799V15.3369C82.2272 12.3893 84.6387 10 87.6136 10C90.5886 10 93 12.3893 93 15.3369V50.6799C93 57.4742 87.423 63 80.5657 63Z"/>
<path fill="currentColor" d="M117 62.6993V32.9769H121.617L122.264 35.8117C122.926 34.8667 123.803 34.0936 124.896 33.4923C126.018 32.8623 127.327 32.5474 128.823 32.5474C130.52 32.5474 132.045 32.9196 133.397 33.6641C134.778 34.38 135.857 35.5396 136.633 37.1432C137.439 38.7467 137.841 40.8513 137.841 43.457V44.359C137.841 46.7643 137.453 48.7974 136.676 50.4582C135.9 52.0903 134.85 53.3216 133.526 54.152C132.203 54.9537 130.75 55.3546 129.168 55.3546C127.644 55.3546 126.364 55.0683 125.328 54.4956C124.292 53.9229 123.501 53.1927 122.955 52.3051V62.6993H117ZM127.313 51.446C128.147 51.446 128.881 51.2313 129.513 50.8018C130.175 50.3722 130.693 49.7566 131.067 48.9548C131.441 48.1531 131.628 47.1652 131.628 45.9912V42.1685C131.628 40.8513 131.441 39.7775 131.067 38.9471C130.693 38.0881 130.175 37.4581 129.513 37.0573C128.881 36.6278 128.147 36.413 127.313 36.413C126.536 36.413 125.803 36.6134 125.112 37.0143C124.451 37.4152 123.918 38.0308 123.516 38.8612C123.113 39.6916 122.912 40.7797 122.912 42.1256V45.9912C122.912 47.1652 123.099 48.1674 123.472 48.9978C123.875 49.7996 124.407 50.4152 125.069 50.8447C125.759 51.2456 126.507 51.446 127.313 51.446Z"/>
<path fill="currentColor" d="M148.53 55.3546C147.35 55.3546 146.214 55.1685 145.121 54.7963C144.057 54.3954 143.179 53.7511 142.489 52.8634C141.798 51.9471 141.453 50.7159 141.453 49.1696C141.453 47.5947 141.798 46.3205 142.489 45.3469C143.208 44.3733 144.2 43.6289 145.466 43.1134C146.761 42.5694 148.3 42.1971 150.083 41.9967C151.896 41.7963 153.924 41.696 156.167 41.696V39.7632C156.167 38.5033 155.822 37.6156 155.132 37.1002C154.441 36.5562 153.435 36.2841 152.111 36.2841C150.989 36.2841 149.997 36.5418 149.134 37.0573C148.3 37.5441 147.883 38.3029 147.883 39.3337V39.6773H142.23C142.201 39.5914 142.187 39.4769 142.187 39.3337C142.187 39.1619 142.187 39.0187 142.187 38.9042C142.187 37.6443 142.59 36.5418 143.395 35.5969C144.2 34.6233 145.322 33.8789 146.761 33.3634C148.199 32.8194 149.867 32.5474 151.766 32.5474H152.672C155.779 32.5474 158.095 33.163 159.619 34.3943C161.144 35.5969 161.906 37.2291 161.906 39.2907V49.9857C161.906 50.5297 162.036 50.9163 162.295 51.1454C162.582 51.3744 162.884 51.489 163.201 51.489C163.46 51.489 163.747 51.446 164.064 51.3601C164.38 51.2456 164.682 51.1167 164.97 50.9736V54.4097C164.596 54.696 164.093 54.9251 163.46 55.0969C162.856 55.2687 162.122 55.3546 161.259 55.3546C160.223 55.3546 159.36 55.1971 158.67 54.8822C157.98 54.5385 157.447 54.0804 157.074 53.5077C156.728 52.935 156.513 52.2764 156.426 51.5319C155.621 52.6773 154.556 53.6079 153.233 54.3238C151.91 55.011 150.342 55.3546 148.53 55.3546ZM151.291 51.489C152.097 51.489 152.859 51.3029 153.578 50.9306C154.326 50.5584 154.945 50.0143 155.434 49.2985C155.923 48.554 156.167 47.6377 156.167 46.5496V44.7885C154.326 44.7885 152.759 44.9031 151.464 45.1322C150.198 45.3612 149.235 45.7478 148.573 46.2919C147.911 46.8073 147.581 47.5661 147.581 48.5683C147.581 49.6278 147.897 50.3866 148.53 50.8447C149.191 51.2742 150.112 51.489 151.291 51.489Z"/>
<path fill="currentColor" d="M169 54.9251V24H174.912V54.9251H169Z"/>
<path fill="currentColor" d="M180.925 54.9251V32.9769H185.327L186.103 36.1982C186.851 35.0529 187.729 34.1652 188.736 33.5352C189.771 32.8767 191.022 32.5474 192.49 32.5474C193.928 32.5474 195.194 32.8194 196.287 33.3634C197.38 33.9075 198.243 34.8095 198.876 36.0694C199.566 34.924 200.458 34.0507 201.551 33.4493C202.644 32.848 203.939 32.5474 205.435 32.5474C206.844 32.5474 208.081 32.8337 209.145 33.4064C210.239 33.9791 211.087 34.7952 211.691 35.8546C212.295 36.9141 212.597 38.2026 212.597 39.7203V54.9251H206.772V41.0518C206.772 39.62 206.47 38.5749 205.866 37.9163C205.262 37.2577 204.428 36.9284 203.363 36.9284C202.673 36.9284 202.04 37.1145 201.465 37.4868C200.918 37.8304 200.487 38.3315 200.17 38.9901C199.854 39.62 199.696 40.3502 199.696 41.1806V54.9251H193.87V41.0518C193.87 39.62 193.568 38.5749 192.964 37.9163C192.36 37.2577 191.511 36.9284 190.418 36.9284C189.728 36.9284 189.109 37.1145 188.563 37.4868C188.016 37.8304 187.585 38.3315 187.268 38.9901C186.952 39.62 186.794 40.3502 186.794 41.1806V54.9251H180.925Z"/>
<path fill="currentColor" d="M224.295 55.3546C223.116 55.3546 221.979 55.1685 220.886 54.7963C219.822 54.3954 218.945 53.7511 218.254 52.8634C217.564 51.9471 217.219 50.7159 217.219 49.1696C217.219 47.5947 217.564 46.3205 218.254 45.3469C218.973 44.3733 219.966 43.6289 221.231 43.1134C222.526 42.5694 224.065 42.1971 225.849 41.9967C227.661 41.7963 229.689 41.696 231.933 41.696V39.7632C231.933 38.5033 231.587 37.6156 230.897 37.1002C230.207 36.5562 229.2 36.2841 227.877 36.2841C226.755 36.2841 225.762 36.5418 224.899 37.0573C224.065 37.5441 223.648 38.3029 223.648 39.3337V39.6773H217.995C217.966 39.5914 217.952 39.4769 217.952 39.3337C217.952 39.1619 217.952 39.0187 217.952 38.9042C217.952 37.6443 218.355 36.5418 219.16 35.5969C219.966 34.6233 221.088 33.8789 222.526 33.3634C223.964 32.8194 225.633 32.5474 227.531 32.5474H228.438C231.544 32.5474 233.86 33.163 235.385 34.3943C236.909 35.5969 237.672 37.2291 237.672 39.2907V49.9857C237.672 50.5297 237.801 50.9163 238.06 51.1454C238.348 51.3744 238.65 51.489 238.966 51.489C239.225 51.489 239.513 51.446 239.829 51.3601C240.146 51.2456 240.448 51.1167 240.735 50.9736V54.4097C240.361 54.696 239.858 54.9251 239.225 55.0969C238.621 55.2687 237.887 55.3546 237.024 55.3546C235.989 55.3546 235.126 55.1971 234.435 54.8822C233.745 54.5385 233.213 54.0804 232.839 53.5077C232.494 52.935 232.278 52.2764 232.192 51.5319C231.386 52.6773 230.322 53.6079 228.998 54.3238C227.675 55.011 226.107 55.3546 224.295 55.3546ZM227.057 51.489C227.862 51.489 228.625 51.3029 229.344 50.9306C230.092 50.5584 230.71 50.0143 231.199 49.2985C231.688 48.554 231.933 47.6377 231.933 46.5496V44.7885C230.092 44.7885 228.524 44.9031 227.229 45.1322C225.964 45.3612 225 45.7478 224.338 46.2919C223.677 46.8073 223.346 47.5661 223.346 48.5683C223.346 49.6278 223.662 50.3866 224.295 50.8447C224.957 51.2742 225.877 51.489 227.057 51.489Z"/>
<path fill="currentColor" d="M252.834 55.3546C251.108 55.3546 249.569 54.9537 248.217 54.152C246.865 53.3502 245.787 52.1046 244.981 50.4152C244.204 48.7258 243.816 46.5782 243.816 43.9725V43.5C243.816 41.0661 244.204 39.0474 244.981 37.4438C245.787 35.8117 246.851 34.5947 248.174 33.793C249.498 32.9626 250.936 32.5474 252.489 32.5474C254.043 32.5474 255.337 32.8337 256.373 33.4064C257.437 33.9791 258.243 34.6949 258.789 35.554V24H264.658V54.9251H260.041L259.393 52.0044C258.703 52.978 257.826 53.7797 256.761 54.4097C255.697 55.0396 254.388 55.3546 252.834 55.3546ZM254.345 51.489C255.179 51.489 255.927 51.2885 256.589 50.8877C257.25 50.4868 257.782 49.8711 258.185 49.0407C258.588 48.1817 258.789 47.0936 258.789 45.7764V41.9537C258.789 40.7511 258.588 39.7489 258.185 38.9471C257.811 38.1454 257.279 37.5441 256.589 37.1432C255.927 36.7137 255.179 36.4989 254.345 36.4989C253.137 36.4989 252.115 36.9714 251.281 37.9163C250.447 38.8326 250.03 40.1784 250.03 41.9537V45.7764C250.03 47.0936 250.217 48.1817 250.591 49.0407C250.993 49.8711 251.511 50.4868 252.144 50.8877C252.806 51.2885 253.539 51.489 254.345 51.489Z"/>
<path fill="currentColor" d="M280.091 55.3546C278.02 55.3546 276.179 54.9394 274.568 54.109C272.986 53.25 271.749 52.0187 270.857 50.4152C269.966 48.783 269.52 46.8073 269.52 44.4879V43.4141C269.52 41.0947 269.98 39.1333 270.901 37.5297C271.85 35.8976 273.13 34.6663 274.741 33.8359C276.381 32.9769 278.236 32.5474 280.307 32.5474H280.998C282.954 32.5474 284.651 32.9482 286.089 33.75C287.556 34.5231 288.678 35.6255 289.455 37.0573C290.26 38.4604 290.663 40.1068 290.663 41.9967V44.7026H275.733C275.733 46.0771 275.906 47.2797 276.251 48.3106C276.596 49.3414 277.114 50.1289 277.805 50.6729C278.495 51.217 279.401 51.489 280.523 51.489C281.443 51.489 282.249 51.3172 282.939 50.9736C283.63 50.6013 284.176 50.0573 284.579 49.3414C284.982 48.6255 285.183 47.7522 285.183 46.7214H290.663C290.663 48.4108 290.232 49.9141 289.369 51.2313C288.506 52.5198 287.312 53.5363 285.787 54.2808C284.291 54.9967 282.551 55.3546 280.566 55.3546H280.091ZM275.776 41.696H284.881C284.881 39.8921 284.478 38.5606 283.673 37.7015C282.896 36.8139 281.817 36.37 280.437 36.37C279.142 36.37 278.049 36.8282 277.157 37.7445C276.294 38.6322 275.834 39.9493 275.776 41.696Z"/>
<path fill="currentColor" d="M303.523 55.3546C302.142 55.3546 300.891 55.1828 299.769 54.8392C298.647 54.4956 297.669 54.0374 296.835 53.4648C296.03 52.8634 295.411 52.1762 294.98 51.4031C294.548 50.6013 294.332 49.7423 294.332 48.826C294.332 48.6542 294.332 48.511 294.332 48.3965C294.332 48.2819 294.347 48.1244 294.375 47.924H299.381C299.352 48.0099 299.338 48.0958 299.338 48.1817C299.338 48.239 299.338 48.2963 299.338 48.3535C299.338 49.0694 299.582 49.6707 300.071 50.1575C300.56 50.6156 301.193 50.9593 301.97 51.1883C302.747 51.3888 303.581 51.489 304.473 51.489C305.192 51.489 305.911 51.4031 306.63 51.2313C307.378 51.0595 307.996 50.7874 308.486 50.4152C308.975 50.0143 309.219 49.5132 309.219 48.9119C309.219 48.2533 308.96 47.7522 308.442 47.4086C307.953 47.0363 307.277 46.75 306.414 46.5496C305.58 46.3205 304.66 46.1344 303.653 45.9912C302.646 45.8194 301.625 45.6189 300.589 45.3899C299.582 45.1322 298.647 44.7742 297.784 44.3161C296.95 43.8579 296.274 43.2423 295.756 42.4692C295.267 41.6674 295.023 40.6222 295.023 39.3337C295.023 38.2456 295.267 37.272 295.756 36.413C296.274 35.554 296.964 34.8381 297.827 34.2654C298.719 33.6927 299.726 33.2632 300.848 32.9769C301.999 32.6905 303.192 32.5474 304.429 32.5474H305.292C306.443 32.5474 307.536 32.6905 308.572 32.9769C309.636 33.2632 310.585 33.6784 311.42 34.2225C312.254 34.7379 312.901 35.3678 313.361 36.1123C313.85 36.8282 314.095 37.6156 314.095 38.4747C314.095 38.6178 314.081 38.7896 314.052 38.9901C314.052 39.1619 314.037 39.2764 314.009 39.3337H309.003V38.9901C309.003 38.6751 308.917 38.3744 308.744 38.0881C308.601 37.7731 308.342 37.4868 307.968 37.2291C307.623 36.9714 307.162 36.7709 306.587 36.6278C306.04 36.4559 305.379 36.37 304.602 36.37C303.912 36.37 303.293 36.4416 302.747 36.5848C302.2 36.6993 301.74 36.8711 301.366 37.1002C300.992 37.3007 300.719 37.5441 300.546 37.8304C300.373 38.1167 300.287 38.4031 300.287 38.6894C300.287 39.2907 300.546 39.7632 301.064 40.1068C301.582 40.4218 302.258 40.6795 303.092 40.88C303.955 41.0518 304.89 41.2236 305.896 41.3954C306.932 41.5385 307.953 41.7247 308.96 41.9537C309.967 42.1828 310.902 42.5407 311.765 43.0275C312.628 43.4857 313.304 44.1156 313.793 44.9174C314.311 45.7192 314.57 46.7643 314.57 48.0529C314.57 49.3987 314.311 50.5441 313.793 51.489C313.275 52.4339 312.556 53.1927 311.635 53.7654C310.715 54.3095 309.679 54.7104 308.529 54.9681C307.378 55.2258 306.17 55.3546 304.904 55.3546H303.523Z"/>
<path fill="currentColor" d="M319.524 54.9251V32.9769H325.436V54.9251H319.524ZM319.438 28.5529V24H325.522V28.5529H319.438Z"/>
<path fill="currentColor" d="M335.197 63C334.19 63 333.269 62.7566 332.435 62.2698C331.63 61.8117 330.968 61.1817 330.45 60.38C329.961 59.5782 329.717 58.7048 329.717 57.7599C329.717 56.7004 330.004 55.7269 330.58 54.8392C331.155 53.9229 331.946 53.2357 332.953 52.7775C332.32 52.3767 331.817 51.8612 331.443 51.2313C331.097 50.5727 330.925 49.8855 330.925 49.1696C330.925 48.1101 331.27 47.2081 331.96 46.4637C332.651 45.6905 333.528 45.1322 334.593 44.7885C333.701 44.2445 332.967 43.5716 332.392 42.7698C331.817 41.9681 331.529 40.9802 331.529 39.8062C331.529 38.5749 331.86 37.4009 332.521 36.2841C333.212 35.1674 334.233 34.2654 335.585 33.5782C336.966 32.891 338.706 32.5474 340.806 32.5474C341.669 32.5474 342.475 32.5903 343.223 32.6762C343.971 32.7621 344.632 32.9053 345.207 33.1057C346.329 32.5044 347.149 31.8458 347.667 31.13C348.214 30.4141 348.516 29.7126 348.573 29.0253H353.19C353.19 29.9989 353.003 30.8722 352.629 31.6454C352.255 32.4185 351.723 33.0628 351.033 33.5782C350.371 34.065 349.566 34.4229 348.616 34.652L348.573 34.7808C349.264 35.3535 349.81 36.0264 350.213 36.7996C350.644 37.5727 350.86 38.4174 350.86 39.3337C350.86 40.5936 350.501 41.7533 349.781 42.8128C349.091 43.8722 348.099 44.7313 346.804 45.3899C345.538 46.0198 344.042 46.3348 342.316 46.3348H339.08C338.188 46.3348 337.498 46.5209 337.009 46.8932C336.52 47.2368 336.275 47.7093 336.275 48.3106C336.275 48.8546 336.491 49.3128 336.923 49.685C337.383 50.0573 338.102 50.2434 339.08 50.2434H346.718C348.731 50.2434 350.314 50.8304 351.464 52.0044C352.615 53.1784 353.19 54.6244 353.19 56.3425C353.19 57.5452 352.888 58.6476 352.284 59.6498C351.68 60.6806 350.831 61.4967 349.738 62.098C348.674 62.6993 347.437 63 346.027 63H335.197ZM337.44 59.3491H344.905C345.682 59.3491 346.344 59.0914 346.89 58.576C347.466 58.0892 347.753 57.4879 347.753 56.772C347.753 56.1134 347.509 55.5551 347.02 55.0969C346.56 54.6388 345.97 54.4097 345.251 54.4097H337.44C336.693 54.4097 336.06 54.6531 335.542 55.1399C335.024 55.6267 334.765 56.1993 334.765 56.8579C334.765 57.5165 335.024 58.0892 335.542 58.576C336.06 59.0914 336.693 59.3491 337.44 59.3491ZM341.238 43.1134C342.503 43.1134 343.496 42.7555 344.215 42.0396C344.963 41.3238 345.337 40.4648 345.337 39.4626C345.337 38.4604 344.963 37.6013 344.215 36.8855C343.496 36.141 342.503 35.7687 341.238 35.7687C339.972 35.7687 338.965 36.141 338.217 36.8855C337.469 37.6013 337.095 38.4604 337.095 39.4626C337.095 40.4648 337.469 41.3238 338.217 42.0396C338.965 42.7555 339.972 43.1134 341.238 43.1134Z"/>
<path fill="currentColor" d="M356.601 54.9251V32.9769H360.96L361.65 36.1982C362.513 34.967 363.549 34.0507 364.757 33.4493C365.994 32.848 367.389 32.5474 368.942 32.5474C370.438 32.5474 371.747 32.8337 372.869 33.4064C374.02 33.9791 374.897 34.7952 375.501 35.8546C376.134 36.9141 376.45 38.2026 376.45 39.7203V54.9251H370.582V40.9659C370.582 39.5628 370.237 38.5319 369.546 37.8733C368.856 37.2148 367.921 36.8855 366.742 36.8855C365.994 36.8855 365.289 37.0859 364.627 37.4868C363.966 37.859 363.448 38.3744 363.074 39.033C362.7 39.6916 362.513 40.4361 362.513 41.2665V54.9251H356.601Z"/>
<path fill="currentColor" d="M382.219 54.9251V49.0837H388.173V54.9251H382.219Z"/>
<path fill="currentColor" d="M394.068 54.9251V32.9769H399.979V54.9251H394.068ZM393.981 28.5529V24H400.066V28.5529H393.981Z"/>
<path fill="currentColor" d="M415.652 55.3546C413.638 55.3546 411.826 54.9108 410.215 54.0231C408.632 53.1068 407.381 51.8183 406.461 50.1575C405.569 48.4967 405.123 46.5496 405.123 44.3161V43.5429C405.123 41.2808 405.569 39.3337 406.461 37.7015C407.381 36.0694 408.632 34.8095 410.215 33.9218C411.797 33.0055 413.595 32.5474 415.608 32.5474H416.471C418.514 32.5474 420.326 33.0055 421.908 33.9218C423.49 34.8095 424.727 36.0694 425.619 37.7015C426.54 39.3337 427 41.2808 427 43.5429V44.3161C427 46.5782 426.54 48.5396 425.619 50.2004C424.727 51.8326 423.49 53.1068 421.908 54.0231C420.326 54.9108 418.528 55.3546 416.515 55.3546H415.652ZM416.04 51.489C416.932 51.489 417.723 51.2885 418.413 50.8877C419.132 50.4581 419.693 49.8282 420.096 48.9978C420.528 48.1674 420.743 47.1795 420.743 46.0341V41.8249C420.743 40.6509 420.528 39.663 420.096 38.8612C419.693 38.0595 419.132 37.4438 418.413 37.0143C417.723 36.5848 416.932 36.37 416.04 36.37C415.177 36.37 414.386 36.5848 413.667 37.0143C412.947 37.4438 412.372 38.0595 411.941 38.8612C411.538 39.663 411.337 40.6509 411.337 41.8249V46.0341C411.337 47.1795 411.538 48.1674 411.941 48.9978C412.372 49.8282 412.947 50.4581 413.667 50.8877C414.386 51.2885 415.177 51.489 416.04 51.489Z"/>
</svg>
