<svg viewBox="0 0 773 142" xmlns="http://www.w3.org/2000/svg"><path d="M177.459 123.785V52.8854H189.055L190.123 55.9879C192.395 54.6994 194.752 53.7331 197.193 53.0888C199.668 52.4446 201.923 52.1225 203.957 52.1225C210.434 52.1225 215.265 54.2925 218.453 58.6326C221.64 62.9388 223.234 69.5337 223.234 78.4173C223.234 87.3687 221.504 93.9805 218.046 98.2528C214.587 102.525 209.722 104.661 203.449 104.661C201.448 104.661 199.295 104.39 196.99 103.847C194.684 103.271 192.616 102.356 190.785 101.101V123.785H177.459ZM190.785 98.3545L185.495 85.792C188.411 88.4028 190.988 90.3016 193.226 91.4884C195.498 92.6412 197.82 93.2176 200.194 93.2176C203.686 93.2176 206.178 92.0987 207.67 89.8608C209.162 87.623 209.908 83.8254 209.908 78.4681C209.908 73.2126 209.196 69.415 207.772 67.0754C206.348 64.7358 203.991 63.5661 200.702 63.5661C198.6 63.5661 196.328 64.1086 193.887 65.1936C191.446 66.2447 188.615 68.0757 185.393 70.6865L190.785 60.1076V98.3545ZM247.697 104.763C242.645 104.763 238.509 103.474 235.287 100.898C232.1 98.3206 230.507 94.4722 230.507 89.3522C230.507 86.877 231.168 84.3849 232.49 81.8758C233.812 79.3667 235.898 77.2814 238.746 75.6199C241.628 73.9246 245.392 73.0769 250.037 73.0769C252.309 73.043 254.394 73.2126 256.293 73.5855C258.192 73.9585 260.124 74.5858 262.091 75.4674L259.446 79.0276V73.6364C259.446 71.1612 259.107 69.1437 258.429 67.584C257.751 65.9904 256.734 64.8206 255.377 64.0747C254.021 63.3287 252.343 62.9557 250.342 62.9557C248.613 62.9557 246.545 63.1592 244.137 63.5661C241.73 63.939 238.899 64.7189 235.643 65.9056L233.66 55.8861C236.542 54.6655 239.661 53.7331 243.018 53.0888C246.409 52.4446 249.613 52.1225 252.631 52.1225C256.496 52.1225 259.921 52.7667 262.905 54.0552C265.888 55.3436 268.228 57.4628 269.923 60.4127C271.619 63.3287 272.466 67.228 272.466 72.1106V104H261.43L259.344 97.6933L261.837 99.0157C260.853 99.9651 259.616 100.898 258.124 101.813C256.632 102.695 254.987 103.407 253.19 103.949C251.393 104.492 249.562 104.763 247.697 104.763ZM250.139 95.608C252.376 95.608 254.513 95.1334 256.547 94.184C258.581 93.2346 260.192 92.1665 261.379 90.9798L259.446 96.6253V79.3328L261.989 84.4696C259.989 83.4863 258.225 82.8252 256.7 82.4861C255.174 82.1131 253.648 81.9266 252.122 81.9266C249.376 81.9266 247.189 82.5709 245.561 83.8593C243.968 85.1139 243.171 86.877 243.171 89.1488C243.171 91.251 243.781 92.8616 245.002 93.9805C246.222 95.0655 247.935 95.608 250.139 95.608ZM281.672 104V93.1159H293.116V45.8158H282.13V34.9317H306.441V93.1159H317.935V104H281.672ZM325.463 104V52.8854H336.805L338.076 56.1405C340.958 54.6146 343.45 53.5635 345.553 52.9871C347.655 52.4107 349.977 52.1225 352.52 52.1225C354.86 52.1225 357.115 52.5633 359.285 53.4449C361.489 54.2925 363.371 55.8522 364.93 58.124L362.387 58.2257C365.676 56.0557 368.83 54.496 371.847 53.5466C374.899 52.5972 377.934 52.1225 380.951 52.1225C384.24 52.1225 387.105 52.7837 389.547 54.106C392.022 55.3945 393.938 57.3781 395.294 60.0567C396.684 62.7014 397.379 66.1091 397.379 70.2796V104H384.054V72.9244C384.054 69.4998 383.579 67.0924 382.63 65.7022C381.714 64.2781 380.019 63.5661 377.544 63.5661C375.577 63.5661 373.56 63.9729 371.491 64.7867C369.457 65.5666 367.524 66.6855 365.693 68.1435L366.049 60.1076C366.66 61.2265 367.151 62.7353 367.524 64.6341C367.897 66.5329 368.084 68.4147 368.084 70.2796V104H354.758V72.9244C354.758 69.4998 354.284 67.0924 353.334 65.7022C352.419 64.2781 350.706 63.5661 348.197 63.5661C346.231 63.5661 344.213 63.9729 342.145 64.7867C340.111 65.5666 338.178 66.6855 336.347 68.1435L338.788 58.836V104H325.463ZM424.284 104.763C419.232 104.763 415.096 103.474 411.874 100.898C408.687 98.3206 407.094 94.4722 407.094 89.3522C407.094 86.877 407.755 84.3849 409.077 81.8758C410.399 79.3667 412.485 77.2814 415.333 75.6199C418.215 73.9246 421.979 73.0769 426.624 73.0769C428.896 73.043 430.981 73.2126 432.88 73.5855C434.779 73.9585 436.711 74.5858 438.678 75.4674L436.033 79.0276V73.6364C436.033 71.1612 435.694 69.1437 435.016 67.584C434.338 65.9904 433.321 64.8206 431.964 64.0747C430.608 63.3287 428.93 62.9557 426.929 62.9557C425.2 62.9557 423.132 63.1592 420.724 63.5661C418.317 63.939 415.486 64.7189 412.23 65.9056L410.247 55.8861C413.129 54.6655 416.248 53.7331 419.605 53.0888C422.996 52.4446 426.2 52.1225 429.218 52.1225C433.083 52.1225 436.508 52.7667 439.492 54.0552C442.475 55.3436 444.815 57.4628 446.51 60.4127C448.206 63.3287 449.053 67.228 449.053 72.1106V104H438.017L435.931 97.6933L438.424 99.0157C437.44 99.9651 436.203 100.898 434.711 101.813C433.219 102.695 431.574 103.407 429.777 103.949C427.98 104.492 426.149 104.763 424.284 104.763ZM426.726 95.608C428.963 95.608 431.1 95.1334 433.134 94.184C435.168 93.2346 436.779 92.1665 437.966 90.9798L436.033 96.6253V79.3328L438.576 84.4696C436.576 83.4863 434.812 82.8252 433.287 82.4861C431.761 82.1131 430.235 81.9266 428.709 81.9266C425.963 81.9266 423.776 82.5709 422.148 83.8593C420.555 85.1139 419.758 86.877 419.758 89.1488C419.758 91.251 420.368 92.8616 421.589 93.9805C422.809 95.0655 424.522 95.608 426.726 95.608ZM478.756 104.661C472.517 104.661 467.651 102.525 464.159 98.2528C460.7 93.9805 458.971 87.3687 458.971 78.4173C458.971 69.5337 460.565 62.9388 463.752 58.6326C466.973 54.2925 471.805 52.1225 478.247 52.1225C480.383 52.1225 482.706 52.4616 485.215 53.1397C487.724 53.8178 490.233 54.8859 492.742 56.3439L491.471 57.5137V34.9317H504.796V104H493.149L491.42 98.9648L492.895 100.135C490.623 101.898 488.199 103.101 485.622 103.746C483.079 104.356 480.79 104.661 478.756 104.661ZM482.062 93.2176C484.435 93.2176 486.741 92.6412 488.979 91.4884C491.25 90.3016 493.844 88.4028 496.76 85.792L491.471 93.8788V59.5481L496.862 70.6865C493.641 68.0757 490.793 66.2447 488.317 65.1936C485.876 64.1086 483.604 63.5661 481.502 63.5661C478.213 63.5661 475.857 64.7358 474.433 67.0754C473.009 69.415 472.296 73.2126 472.296 78.4681C472.296 83.8254 473.042 87.623 474.534 89.8608C476.06 92.0987 478.569 93.2176 482.062 93.2176ZM539.33 104.661C531.6 104.661 525.7 102.474 521.631 98.1002C517.562 93.7262 515.528 87.1991 515.528 78.519C515.528 73.6025 516.138 69.4659 517.359 66.1091C518.579 62.7184 520.258 60.0058 522.394 57.9714C524.564 55.9031 527.039 54.4112 529.819 53.4957C532.634 52.5802 535.601 52.1225 538.72 52.1225C542.789 52.1225 546.366 52.9702 549.452 54.6655C552.571 56.3608 554.995 58.853 556.725 62.142C558.488 65.397 559.369 69.415 559.369 74.1959C559.369 75.0435 559.335 76.2981 559.268 77.9595C559.234 79.621 559.115 81.1976 558.912 82.6895H524.174L528.853 79.2819C528.785 82.9438 529.175 85.8429 530.023 87.979C530.871 90.0812 532.108 91.5901 533.736 92.5056C535.397 93.3871 537.398 93.8279 539.737 93.8279C542.28 93.8279 544.603 93.5228 546.705 92.9125C548.841 92.2682 551.266 91.3358 553.978 90.1151L558.301 99.7786C555.521 101.372 552.435 102.593 549.045 103.441C545.688 104.254 542.45 104.661 539.33 104.661ZM546.654 80.4008V75.2639C546.959 71.0256 546.4 67.7536 544.976 65.4479C543.552 63.1083 541.331 61.9385 538.313 61.9385C534.855 61.9385 532.329 63.2778 530.735 65.9565C529.141 68.6012 528.514 72.5344 528.853 77.7561L524.174 74.2976H550.469L546.654 80.4008ZM586.071 104.661C583.257 104.661 580.12 104.305 576.662 103.593C573.237 102.881 569.847 101.627 566.49 99.8295L570.203 89.81C572.983 91.268 575.814 92.353 578.696 93.065C581.578 93.7432 584.087 94.0822 586.224 94.0822C588.563 94.0822 590.445 93.7093 591.869 92.9633C593.327 92.2174 594.056 90.9119 594.056 89.0471C594.056 87.8603 593.734 86.9109 593.09 86.1989C592.479 85.4529 591.428 84.8765 589.936 84.4696L579.561 81.8249C576.204 80.9094 573.356 79.3158 571.016 77.044C568.677 74.7723 567.507 71.6528 567.507 67.6857C567.507 64.2951 568.338 61.4469 569.999 59.1412C571.661 56.8355 574.017 55.0893 577.069 53.9026C580.12 52.7159 583.731 52.1225 587.902 52.1225C590.411 52.1225 593.141 52.4107 596.09 52.9871C599.04 53.5635 601.804 54.4621 604.381 55.6827L600.566 65.4987C598.159 64.4815 595.768 63.7525 593.395 63.3118C591.021 62.871 588.902 62.6506 587.037 62.6506C584.732 62.6506 582.935 63.0405 581.646 63.8204C580.392 64.5663 579.764 65.7022 579.764 67.228C579.764 68.4826 580.154 69.398 580.934 69.9745C581.748 70.5509 583.036 71.0934 584.799 71.602L593.649 73.8907C596.057 74.501 598.21 75.3826 600.108 76.5354C602.041 77.6883 603.55 79.231 604.635 81.1637C605.754 83.0964 606.313 85.5547 606.313 88.5385C606.313 91.9631 605.517 94.896 603.923 97.3373C602.363 99.7447 600.075 101.576 597.057 102.83C594.073 104.051 590.411 104.661 586.071 104.661ZM613.078 104V93.1159H623.504V63.7695H613.536V52.8854H636.83V93.1159H647.307V104H613.078ZM629.963 46.6296C627.624 46.6296 625.606 45.7989 623.911 44.1374C622.25 42.4421 621.419 40.3907 621.419 37.9833C621.419 35.6437 622.25 33.6432 623.911 31.9818C625.606 30.3204 627.624 29.4896 629.963 29.4896C632.337 29.4896 634.354 30.3204 636.016 31.9818C637.711 33.6432 638.559 35.6437 638.559 37.9833C638.559 40.3907 637.711 42.4421 636.016 44.1374C634.354 45.7989 632.337 46.6296 629.963 46.6296ZM676.094 124.802C671.991 124.802 668.465 124.429 665.515 123.683C662.565 122.971 660.141 121.954 658.242 120.631C656.377 119.309 655.004 117.749 654.122 115.952C653.24 114.189 652.8 112.256 652.8 110.154C652.8 108.56 653.054 107.035 653.563 105.577C654.071 104.153 654.749 102.864 655.597 101.711C656.479 100.525 657.445 99.5243 658.496 98.7105C656.936 97.3882 655.885 96.0488 655.343 94.6926C654.8 93.3363 654.529 91.9631 654.529 90.5729C654.529 88.7419 655.038 86.9618 656.055 85.2325C657.072 83.4694 658.666 81.5876 660.836 79.5871L661.751 83.249C659.14 81.3163 657.208 79.248 655.953 77.044C654.698 74.8401 654.071 72.2632 654.071 69.3133C654.071 63.583 655.987 59.2768 659.818 56.3948C663.65 53.4788 668.905 52.0208 675.585 52.0208C678.501 52.0208 680.79 52.1733 682.451 52.4785C684.113 52.7837 685.486 53.0888 686.571 53.394C687.656 53.6652 688.724 53.8009 689.775 53.8009H703.66V65.041H692.572L694.759 60.8196C696.082 63.2948 696.743 66.126 696.743 69.3133C696.743 75.3148 694.895 79.8074 691.199 82.7913C687.537 85.7751 682.333 87.267 675.585 87.267C672.839 87.267 670.448 86.9788 668.414 86.4023C666.379 85.792 664.565 85.0291 662.972 84.1136H669.482C668.431 85.1308 667.6 86.148 666.99 87.1652C666.379 88.1485 666.074 89.1997 666.074 90.3186C666.074 91.4714 666.43 92.4378 667.142 93.2176C667.854 93.9636 668.804 94.3365 669.99 94.3365H685.147C690.335 94.3365 694.285 95.3877 696.997 97.4899C699.71 99.5582 701.066 102.61 701.066 106.645C701.066 109.968 700.1 113.002 698.167 115.749C696.234 118.529 693.403 120.733 689.673 122.361C685.978 123.988 681.451 124.802 676.094 124.802ZM675.89 115.494C679.01 115.494 681.536 115.138 683.468 114.426C685.435 113.748 686.876 112.85 687.792 111.731C688.741 110.612 689.216 109.408 689.216 108.12C689.216 106.763 688.809 105.746 687.995 105.068C687.181 104.39 685.571 104.051 683.163 104.051H660.225L669.736 99.1683C668.176 100.83 666.922 102.457 665.973 104.051C665.023 105.678 664.548 107.255 664.548 108.781C664.548 109.696 664.701 110.544 665.006 111.324C665.345 112.138 665.922 112.85 666.735 113.46C667.583 114.104 668.753 114.596 670.245 114.935C671.737 115.308 673.619 115.494 675.89 115.494ZM675.585 77.7052C678.501 77.7052 680.773 77.044 682.4 75.7217C684.062 74.3993 684.893 72.3649 684.893 69.6184C684.893 66.9398 684.045 64.9393 682.35 63.6169C680.688 62.2606 678.433 61.5825 675.585 61.5825C672.771 61.5825 670.516 62.2606 668.821 63.6169C667.125 64.9393 666.278 66.9398 666.278 69.6184C666.278 72.331 667.108 74.3484 668.77 75.6708C670.431 76.9932 672.703 77.6713 675.585 77.7052ZM711.391 104V52.8854H722.733L724.004 56.1405C726.988 54.6146 729.582 53.5635 731.786 52.9871C733.99 52.4107 736.414 52.1225 739.059 52.1225C742.178 52.1225 744.959 52.7837 747.4 54.106C749.875 55.3945 751.808 57.3781 753.198 60.0567C754.622 62.7014 755.334 66.1091 755.334 70.2796V104H742.009V72.9244C742.009 69.4998 741.517 67.0924 740.534 65.7022C739.55 64.2781 737.703 63.5661 734.99 63.5661C732.888 63.5661 730.735 63.9729 728.531 64.7867C726.327 65.5666 724.241 66.6855 722.275 68.1435L724.716 59.955V104H711.391Z" fill="currentColor"/><path d="M24.7396 15H74.1162C84.5817 15 93.0744 23.4927 93.0744 33.9582V51.6124C93.0744 62.0779 84.5817 70.5707 74.1162 70.5707H24.7396C22.1232 70.5707 20 68.4475 20 65.8311V19.7396C20 17.1232 22.1232 15 24.7396 15Z" fill="currentColor"/><path d="M57.4649 73.4796H25.709C23.0915 73.4796 20.9695 75.6016 20.9695 78.2192V105.252C20.9695 107.87 23.0915 109.992 25.709 109.992H57.4649C60.0825 109.992 62.2044 107.87 62.2044 105.252V78.2192C62.2044 75.6016 60.0825 73.4796 57.4649 73.4796Z" fill="currentColor"/><path d="M135.296 129H85.9192C75.4537 129 66.961 120.507 66.961 110.042V92.3876C66.961 81.9221 75.4537 73.4294 85.9192 73.4294H135.296C137.912 73.4294 140.035 75.5525 140.035 78.1689V124.26C140.035 126.877 137.912 129 135.296 129Z" fill="currentColor"/><path d="M102.571 70.5204H134.326C136.944 70.5204 139.066 68.3985 139.066 65.7809V38.7479C139.066 36.1303 136.944 34.0083 134.326 34.0083L102.571 34.0083C99.9529 34.0083 97.831 36.1303 97.831 38.7479V65.7809C97.831 68.3985 99.9529 70.5204 102.571 70.5204Z" fill="currentColor"/></svg>
