<svg viewBox="18 13 124 118" xmlns="http://www.w3.org/2000/svg"><path d="M24.7396 15H74.1162C84.5817 15 93.0744 23.4927 93.0744 33.9582V51.6124C93.0744 62.0779 84.5817 70.5707 74.1162 70.5707H24.7396C22.1232 70.5707 20 68.4475 20 65.8311V19.7396C20 17.1232 22.1232 15 24.7396 15Z" fill="currentColor"/><path d="M57.4649 73.4796H25.709C23.0915 73.4796 20.9695 75.6016 20.9695 78.2192V105.252C20.9695 107.87 23.0915 109.992 25.709 109.992H57.4649C60.0825 109.992 62.2044 107.87 62.2044 105.252V78.2192C62.2044 75.6016 60.0825 73.4796 57.4649 73.4796Z" fill="currentColor"/><path d="M135.296 129H85.9192C75.4537 129 66.961 120.507 66.961 110.042V92.3876C66.961 81.9221 75.4537 73.4294 85.9192 73.4294H135.296C137.912 73.4294 140.035 75.5525 140.035 78.1689V124.26C140.035 126.877 137.912 129 135.296 129Z" fill="currentColor"/><path d="M102.571 70.5204H134.326C136.944 70.5204 139.066 68.3985 139.066 65.7809V38.7479C139.066 36.1303 136.944 34.0083 134.326 34.0083L102.571 34.0083C99.9529 34.0083 97.831 36.1303 97.831 38.7479V65.7809C97.831 68.3985 99.9529 70.5204 102.571 70.5204Z" fill="currentColor"/></svg>
